<svg width="30" height="30" viewBox="0 0 30 30" fill="none" xmlns="http://www.w3.org/2000/svg">
<path d="M13.6113 27.7549C13.9845 28.128 14.4861 28.336 15.0122 28.336C15.5322 28.336 16.0461 28.1219 16.4131 27.7549L27.4062 16.7618C29.0763 15.0918 29.9939 12.8711 30 10.5159C30 8.15456 29.0824 5.93392 27.4123 4.26386C25.7423 2.59379 23.5277 1.67618 21.1664 1.67618C18.8479 1.67618 16.6639 2.56321 15.0061 4.17821C13.3422 2.55709 11.1521 1.66394 8.82749 1.66394C6.47227 1.66394 4.25775 2.58156 2.58768 4.24551C0.917618 5.91557 0 8.13621 0 10.4975C0 12.8528 0.923736 15.0734 2.5938 16.7435L13.6113 27.7549ZM3.65212 5.30994C5.03467 3.9274 6.87602 3.16272 8.8336 3.16272C10.7912 3.16272 12.6387 3.9274 14.0273 5.31606L14.48 5.76875C14.6207 5.90945 14.8104 5.98898 15.0122 5.98898C15.208 5.98898 15.4038 5.90945 15.5445 5.76875L15.9849 5.3283C17.3736 3.93963 19.2149 3.17495 21.1786 3.17495C23.1362 3.17495 24.9776 3.93963 26.3601 5.32218C27.7488 6.71084 28.5073 8.5522 28.5073 10.5098C28.5073 12.4674 27.7427 14.3087 26.354 15.6974L15.3548 26.6966C15.1774 26.874 14.8532 26.874 14.6697 26.6966L3.65824 15.6851C2.26958 14.2965 1.50489 12.4551 1.50489 10.4975C1.50489 8.53996 2.26958 6.69861 3.65212 5.30994Z" fill="#3C3C3C"/>
</svg>
