<svg width="48" height="50" viewBox="0 0 48 50" fill="none" xmlns="http://www.w3.org/2000/svg">
<g clip-path="url(#clip0_44_28)">
<path d="M32 25C32 22.6997 31.2188 20.7357 29.6562 19.1081C28.0938 17.4805 26.2083 16.6667 24 16.6667C21.7917 16.6667 19.9062 17.4805 18.3438 19.1081C16.7812 20.7357 16 22.6997 16 25C16 27.3003 16.7812 29.2643 18.3438 30.8919C19.9062 32.5195 21.7917 33.3333 24 33.3333C26.2083 33.3333 28.0938 32.5195 29.6562 30.8919C31.2188 29.2643 32 27.3003 32 25ZM36.3125 25C36.3125 28.559 35.1146 31.5864 32.7188 34.082C30.3229 36.5777 27.4167 37.8255 24 37.8255C20.5833 37.8255 17.6771 36.5777 15.2812 34.082C12.8854 31.5864 11.6875 28.559 11.6875 25C11.6875 21.441 12.8854 18.4136 15.2812 15.918C17.6771 13.4223 20.5833 12.1745 24 12.1745C27.4167 12.1745 30.3229 13.4223 32.7188 15.918C35.1146 18.4136 36.3125 21.441 36.3125 25ZM39.6875 11.6536C39.6875 12.4783 39.4062 13.1836 38.8438 13.7695C38.2812 14.3555 37.6042 14.6484 36.8125 14.6484C36.0208 14.6484 35.3438 14.3555 34.7812 13.7695C34.2188 13.1836 33.9375 12.4783 33.9375 11.6536C33.9375 10.829 34.2188 10.1237 34.7812 9.53776C35.3438 8.95182 36.0208 8.65885 36.8125 8.65885C37.6042 8.65885 38.2812 8.95182 38.8438 9.53776C39.4062 10.1237 39.6875 10.829 39.6875 11.6536ZM24 4.49219C23.8542 4.49219 23.0573 4.48676 21.6094 4.47591C20.1615 4.46506 19.0625 4.46506 18.3125 4.47591C17.5625 4.48676 16.5573 4.51931 15.2969 4.57357C14.0365 4.62782 12.9635 4.73633 12.0781 4.89909C11.1927 5.06185 10.4479 5.26259 9.84375 5.5013C8.80208 5.93533 7.88542 6.56467 7.09375 7.38932C6.30208 8.21397 5.69792 9.16884 5.28125 10.2539C5.05208 10.8832 4.85938 11.6591 4.70312 12.5814C4.54688 13.5037 4.44271 14.6213 4.39062 15.9342C4.33854 17.2472 4.30729 18.2943 4.29688 19.0755C4.28646 19.8568 4.28646 21.0015 4.29688 22.5098C4.30729 24.018 4.3125 24.8481 4.3125 25C4.3125 25.1519 4.30729 25.982 4.29688 27.4902C4.28646 28.9985 4.28646 30.1432 4.29688 30.9245C4.30729 31.7057 4.33854 32.7528 4.39062 34.0658C4.44271 35.3787 4.54688 36.4963 4.70312 37.4186C4.85938 38.3409 5.05208 39.1168 5.28125 39.7461C5.69792 40.8312 6.30208 41.786 7.09375 42.6107C7.88542 43.4353 8.80208 44.0647 9.84375 44.4987C10.4479 44.7374 11.1927 44.9381 12.0781 45.1009C12.9635 45.2637 14.0365 45.3722 15.2969 45.4264C16.5573 45.4807 17.5625 45.5132 18.3125 45.5241C19.0625 45.5349 20.1615 45.5349 21.6094 45.5241C23.0573 45.5132 23.8542 45.5078 24 45.5078C24.1458 45.5078 24.9427 45.5132 26.3906 45.5241C27.8385 45.5349 28.9375 45.5349 29.6875 45.5241C30.4375 45.5132 31.4427 45.4807 32.7031 45.4264C33.9635 45.3722 35.0365 45.2637 35.9219 45.1009C36.8073 44.9381 37.5521 44.7374 38.1562 44.4987C39.1979 44.0647 40.1146 43.4353 40.9062 42.6107C41.6979 41.786 42.3021 40.8312 42.7188 39.7461C42.9479 39.1168 43.1406 38.3409 43.2969 37.4186C43.4531 36.4963 43.5573 35.3787 43.6094 34.0658C43.6615 32.7528 43.6927 31.7057 43.7031 30.9245C43.7135 30.1432 43.7135 28.9985 43.7031 27.4902C43.6927 25.982 43.6875 25.1519 43.6875 25C43.6875 24.8481 43.6927 24.018 43.7031 22.5098C43.7135 21.0015 43.7135 19.8568 43.7031 19.0755C43.6927 18.2943 43.6615 17.2472 43.6094 15.9342C43.5573 14.6213 43.4531 13.5037 43.2969 12.5814C43.1406 11.6591 42.9479 10.8832 42.7188 10.2539C42.3021 9.16884 41.6979 8.21397 40.9062 7.38932C40.1146 6.56467 39.1979 5.93533 38.1562 5.5013C37.5521 5.26259 36.8073 5.06185 35.9219 4.89909C35.0365 4.73633 33.9635 4.62782 32.7031 4.57357C31.4427 4.51931 30.4375 4.48676 29.6875 4.47591C28.9375 4.46506 27.8385 4.46506 26.3906 4.47591C24.9427 4.48676 24.1458 4.49219 24 4.49219ZM48 25C48 29.9696 47.9479 33.4093 47.8438 35.319C47.6354 39.8329 46.3438 43.3268 43.9688 45.8008C41.5938 48.2747 38.2396 49.6202 33.9062 49.8372C32.0729 49.9457 28.7708 50 24 50C19.2292 50 15.9271 49.9457 14.0938 49.8372C9.76042 49.6202 6.40625 48.2747 4.03125 45.8008C1.65625 43.3268 0.364583 39.8329 0.15625 35.319C0.0520833 33.4093 0 29.9696 0 25C0 20.0304 0.0520833 16.5907 0.15625 14.681C0.364583 10.1671 1.65625 6.67318 4.03125 4.19922C6.40625 1.72526 9.76042 0.379774 14.0938 0.16276C15.9271 0.0542535 19.2292 0 24 0C28.7708 0 32.0729 0.0542535 33.9062 0.16276C38.2396 0.379774 41.5938 1.72526 43.9688 4.19922C46.3438 6.67318 47.6354 10.1671 47.8438 14.681C47.9479 16.5907 48 20.0304 48 25Z" fill="white"/>
</g>
<defs>
<clipPath id="clip0_44_28">
<rect width="48" height="50" fill="white"/>
</clipPath>
</defs>
</svg>
