<svg width="48" height="47" viewBox="0 0 48 47" fill="none" xmlns="http://www.w3.org/2000/svg">
<path fill-rule="evenodd" clip-rule="evenodd" d="M45.4406 12.8906C45.7744 11.7891 45.4406 10.9883 43.9641 10.9883H39.0544C37.8159 10.9883 37.2441 11.6895 36.9103 12.4395C36.9103 12.4395 34.3847 18.8457 30.8578 22.999C29.7141 24.2002 29.19 24.6006 28.5703 24.6006C28.2366 24.6006 27.8072 24.2002 27.8072 23.0996V12.8389C27.8072 11.5381 27.4266 10.9375 26.3775 10.9375H18.6562C17.8931 10.9375 17.4169 11.5381 17.4169 12.1387C17.4169 13.3896 19.1803 13.6904 19.3706 17.1934V24.8047C19.3706 26.4561 19.0894 26.7578 18.465 26.7578C16.7972 26.7578 12.7463 20.3018 10.3162 12.9453C9.84375 11.4883 9.36375 10.9375 8.12438 10.9375H3.16781C1.73813 10.9375 1.5 11.6377 1.5 12.3887C1.5 13.7402 3.16781 20.5459 9.26813 29.5537C13.3191 35.7061 19.0856 39.0127 24.2803 39.0127C27.4266 39.0127 27.8072 38.2617 27.8072 37.0107V32.3564C27.8072 30.8555 28.0931 30.6055 29.0944 30.6055C29.8088 30.6055 31.0959 31.0049 34.0031 33.958C37.3388 37.4609 37.9106 39.0625 39.7697 39.0625H44.6784C46.1081 39.0625 46.7756 38.3115 46.3941 36.8604C45.9656 35.4092 44.3447 33.3076 42.2475 30.8057C41.1038 29.4053 39.3881 27.8535 38.8641 27.1025C38.1497 26.1016 38.34 25.7012 38.8641 24.8008C38.8162 24.8008 44.8219 15.8926 45.4406 12.8867" fill="white"/>
</svg>
