<svg width="48" height="50" viewBox="0 0 48 50" fill="none" xmlns="http://www.w3.org/2000/svg">
<path fill-rule="evenodd" clip-rule="evenodd" d="M38.8809 9.48252C36.9394 7.45915 34.6329 5.85578 32.0941 4.7647C29.5554 3.67363 26.8345 3.1164 24.0881 3.1251C12.5625 3.1251 3.18 12.8497 3.17531 24.8048C3.17021 28.6115 4.13353 32.3517 5.96719 35.6446L3 46.8751L14.0859 43.8605C17.1546 45.5921 20.5897 46.4984 24.0797 46.4972H24.0881C35.6128 46.4972 44.9944 36.7716 45 24.8175C45.007 21.9665 44.4696 19.1425 43.4191 16.5098C42.3686 13.8771 40.8259 11.4884 38.8809 9.48252ZM24.0881 42.838H24.0806C20.9694 42.8389 17.9148 41.9716 15.2344 40.3263L14.5997 39.9356L8.02125 41.7247L9.77719 35.0753L9.36375 34.3917C7.62411 31.5227 6.70242 28.1981 6.70594 24.8048C6.70594 14.8702 14.5069 6.78721 24.0947 6.78721C28.6941 6.77865 33.1083 8.67347 36.3666 12.0549C39.625 15.4363 41.4604 20.0275 41.4694 24.8185C41.4656 34.754 33.6684 42.838 24.0881 42.838ZM33.6216 29.3429C33.0994 29.0714 30.5278 27.7608 30.0516 27.5802C29.5753 27.3995 29.2238 27.3087 28.8759 27.8517C28.5281 28.3946 27.5259 29.6095 27.2212 29.9757C26.9166 30.3419 26.6119 30.3819 26.0897 30.1105C25.5675 29.839 23.8828 29.2677 21.8869 27.422C20.3334 25.9855 19.2853 24.212 18.9806 23.67C18.6759 23.128 18.9478 22.8341 19.2094 22.5646C19.4447 22.3214 19.7316 21.9317 19.9931 21.6153C20.2547 21.2989 20.3419 21.0724 20.5153 20.711C20.6887 20.3497 20.6025 20.0333 20.4722 19.7628C20.3419 19.4923 19.2966 16.8253 18.8616 15.7403C18.4369 14.6837 18.0066 14.8272 17.6859 14.8106C17.3812 14.795 17.0297 14.7911 16.6838 14.7911C16.4193 14.7983 16.1591 14.8622 15.9194 14.9788C15.6797 15.0954 15.4657 15.2622 15.2906 15.4689C14.8116 16.0118 13.4616 17.3243 13.4616 19.9884C13.4616 22.6524 15.3366 25.2306 15.5953 25.5919C15.8541 25.9532 19.2797 31.4249 24.5212 33.7716C25.4946 34.2058 26.489 34.5865 27.5006 34.9122C28.7522 35.3243 29.8913 35.2667 30.7913 35.1271C31.7953 34.9718 33.885 33.8165 34.3191 32.5509C34.7531 31.2853 34.7541 30.2013 34.6238 29.9757C34.4934 29.7501 34.1447 29.6134 33.6216 29.3429Z" fill="white"/>
</svg>
